# Blender v3.0.1 OBJ File: 'fence.blend'
# www.blender.org
mtllib fence.mtl
o Cube.004_Cube.008
v -0.718821 0.713091 0.013398
v -0.718821 0.445329 0.013398
v -0.718821 0.713091 0.109353
v -0.718821 0.445329 0.109353
v 0.774211 0.713091 0.013398
v 0.774211 0.445329 0.013398
v 0.774211 0.713091 0.109353
v 0.774211 0.445329 0.109353
v 0.339385 2.606600 -0.068948
v 0.339385 -0.034533 -0.068948
v 0.717215 2.606600 -0.068948
v 0.717215 -0.034533 -0.068948
v 0.339385 2.606600 0.013978
v 0.339385 -0.034533 0.013978
v 0.717215 2.606600 0.013978
v 0.717215 -0.034533 0.013978
v 0.528300 2.883856 -0.068948
v 0.528300 2.883856 0.013978
v -0.660615 2.606600 -0.068948
v -0.660615 -0.034533 -0.068948
v -0.282785 2.606600 -0.068948
v -0.282785 -0.034533 -0.068948
v -0.660615 2.606600 0.013978
v -0.660615 -0.034533 0.013978
v -0.282785 2.606600 0.013978
v -0.282785 -0.034533 0.013978
v -0.471700 2.883856 -0.068948
v -0.471700 2.883856 0.013978
v -0.161604 -0.034533 0.013978
v -0.161604 2.606600 0.013978
v 0.217215 -0.034533 -0.068948
v 0.216226 -0.034533 -0.068948
v 0.216226 2.606600 -0.068948
v -0.161604 -0.034533 -0.068948
v -0.161604 2.606600 -0.068948
v -0.160615 -0.034533 -0.068948
v 0.216226 2.606600 0.013978
v 0.216226 -0.034533 0.013978
v 0.027311 2.883856 -0.068948
v 0.027311 2.883856 0.013978
v -0.718821 2.288593 0.013398
v -0.718821 2.020831 0.013398
v -0.718821 2.288593 0.109353
v -0.718821 2.020831 0.109353
v 0.774211 2.288593 0.013398
v 0.774211 2.020831 0.013398
v 0.774211 2.288593 0.109353
v 0.774211 2.020831 0.109353
vt 0.034588 0.000137
vt 0.941685 0.000137
vt 0.941685 0.028506
vt 0.034588 0.028504
vt 0.034588 0.499862
vt 0.941684 0.499864
vt 0.941684 0.528233
vt 0.034588 0.528230
vt 0.970053 0.028506
vt 0.970053 0.499864
vt 0.034588 0.999863
vt 0.034588 0.528506
vt 0.062957 0.528506
vt 0.062957 0.999863
vt 0.970052 0.999863
vt 0.970052 0.528506
vt 0.302544 0.908955
vt 0.280078 0.908955
vt 0.280078 0.818060
vt 0.302544 0.818060
vt 0.302544 0.102516
vt 0.280077 0.102516
vt 0.177714 0.102516
vt 0.228896 0.893175
vt 0.177715 0.818060
vt 0.280077 0.000150
vt 0.302544 0.000150
vt 0.155248 0.818060
vt 0.155247 0.102516
vt 0.104067 0.893175
vt 0.052886 0.818061
vt 0.052884 0.102516
vt 0.302544 0.999850
vt 0.280077 0.999850
vt 0.923557 0.908955
vt 0.901091 0.908955
vt 0.901091 0.818060
vt 0.923558 0.818060
vt 0.923558 0.102516
vt 0.901091 0.102516
vt 0.849910 0.893175
vt 0.798728 0.818060
vt 0.798728 0.102516
vt 0.776262 0.818060
vt 0.776260 0.102516
vt 0.725080 0.893175
vt 0.673899 0.818060
vt 0.673898 0.102516
vt 0.923557 0.999850
vt 0.901091 0.999850
vt 0.611098 0.908955
vt 0.588631 0.908955
vt 0.588631 0.818060
vt 0.611098 0.818060
vt 0.611098 0.102516
vt 0.588631 0.102516
vt 0.923558 0.000150
vt 0.901090 0.000150
vt 0.537450 0.893175
vt 0.486268 0.818060
vt 0.486268 0.102516
vt 0.463802 0.818060
vt 0.463801 0.102516
vt 0.412621 0.893175
vt 0.361439 0.818060
vt 0.361438 0.102516
vt 0.611098 0.999850
vt 0.588631 0.999850
vt 0.611098 0.000150
vt 0.588631 0.000150
vt 0.034588 0.000137
vt 0.941685 0.000137
vt 0.941685 0.028506
vt 0.034588 0.028504
vt 0.034588 0.499862
vt 0.941684 0.499864
vt 0.941684 0.528233
vt 0.034588 0.528230
vt 0.970053 0.028506
vt 0.970053 0.499864
vt 0.034588 0.999863
vt 0.034588 0.528506
vt 0.062957 0.528506
vt 0.062957 0.999863
vt 0.970052 0.999863
vt 0.970052 0.528506
vn -1.0000 0.0000 0.0000
vn 1.0000 0.0000 0.0000
vn 0.0000 0.0000 -1.0000
vn 0.0000 1.0000 0.0000
vn 0.0000 -1.0000 0.0000
vn -0.0000 0.0000 1.0000
vn 0.8264 0.5631 0.0000
vn -0.8264 0.5631 0.0000
usemtl Material.011
s off
f 4/1/1 3/2/1 1/3/1 2/4/1
f 6/5/2 5/6/2 7/7/2 8/8/2
f 2/4/3 1/3/3 5/6/3 6/5/3
f 3/9/4 7/10/4 5/6/4 1/3/4
f 2/11/5 6/12/5 8/13/5 4/14/5
f 3/15/6 4/14/6 8/13/6 7/16/6
usemtl Material.001
f 17/17/7 18/18/7 15/19/7 11/20/7
f 12/21/2 11/20/2 15/19/2 16/22/2
f 14/23/6 16/22/6 15/19/6 18/24/6 13/25/6
f 16/22/5 14/26/5 10/27/5 12/21/5
f 14/23/1 13/25/1 9/28/1 10/29/1
f 10/29/3 9/28/3 17/30/3 11/31/3 12/32/3
f 9/33/8 13/34/8 18/18/8 17/17/8
f 27/35/7 28/36/7 25/37/7 21/38/7
f 22/39/2 21/38/2 25/37/2 26/40/2
f 26/40/6 25/37/6 28/41/6 23/42/6 24/43/6
f 24/43/1 23/42/1 19/44/1 20/45/1
f 20/45/3 19/44/3 27/46/3 21/47/3 22/48/3
f 19/49/8 23/50/8 28/36/8 27/35/8
f 39/51/7 40/52/7 37/53/7 33/54/7
f 32/55/2 33/54/2 37/53/2 38/56/2
f 20/57/5 22/39/5 26/40/5 24/58/5
f 38/56/6 37/53/6 40/59/6 30/60/6 29/61/6
f 29/61/1 30/60/1 35/62/1 34/63/1
f 34/63/3 35/62/3 39/64/3 33/65/3 32/66/3
f 35/67/8 30/68/8 40/52/8 39/51/8
f 34/69/5 32/55/5 38/56/5 29/70/5
usemtl Material.009
f 44/71/1 43/72/1 41/73/1 42/74/1
f 46/75/2 45/76/2 47/77/2 48/78/2
f 42/74/3 41/73/3 45/76/3 46/75/3
f 43/79/4 47/80/4 45/76/4 41/73/4
f 42/81/5 46/82/5 48/83/5 44/84/5
f 43/85/6 44/84/6 48/83/6 47/86/6
