# Blender v3.0.1 OBJ File: 'Lights.blend'
# www.blender.org
mtllib Light_ball_middle.mtl
o Sphere.001
v 0.002488 13.314666 2.551384
v 0.002488 13.071648 2.074433
v 0.002488 12.216186 1.452904
v 0.002488 11.687481 1.369165
v 0.002488 11.158776 1.452904
v 0.002488 10.303314 2.074433
v 0.002488 10.060296 2.551384
v 0.266841 13.314666 2.622217
v 0.505316 13.071648 2.209165
v 0.694572 12.693136 1.881366
v 0.816081 12.216186 1.670905
v 0.857950 11.687481 1.598385
v 0.816081 11.158776 1.670905
v 0.694572 10.681826 1.881366
v 0.505316 10.303314 2.209165
v 0.266841 10.060296 2.622217
v 0.460360 13.314666 2.815737
v 0.873412 13.071648 2.577261
v 1.201212 12.693136 2.388006
v 1.411672 12.216186 2.266496
v 1.484192 11.687481 2.224627
v 1.411672 11.158776 2.266496
v 1.201212 10.681826 2.388006
v 0.873412 10.303314 2.577261
v 0.460360 10.060296 2.815737
v 0.531193 13.314666 3.080089
v 1.008144 13.071648 3.080089
v 1.386655 12.693136 3.080089
v 1.629674 12.216186 3.080089
v 1.713412 11.687481 3.080089
v 1.629674 11.158776 3.080089
v 1.386655 10.681826 3.080089
v 1.008144 10.303314 3.080089
v 0.531193 10.060296 3.080089
v 0.460360 13.314666 3.344441
v 0.873412 13.071648 3.582917
v 1.201212 12.693136 3.772172
v 1.411672 12.216186 3.893681
v 1.484192 11.687481 3.935551
v 1.411672 11.158776 3.893681
v 1.201212 10.681826 3.772172
v 0.873412 10.303314 3.582917
v 0.460360 10.060296 3.344441
v 0.266841 13.314666 3.537960
v 0.505316 13.071648 3.951012
v 0.694571 12.693136 4.278812
v 0.816081 12.216186 4.489272
v 0.857950 11.687481 4.561792
v 0.816081 11.158776 4.489272
v 0.694571 10.681826 4.278812
v 0.505316 10.303314 3.951012
v 0.266841 10.060296 3.537961
v 0.002488 13.398404 3.080089
v 0.002488 13.314666 3.608793
v 0.002488 13.071648 4.085744
v 0.002488 12.693136 4.464255
v 0.002489 12.216186 4.707274
v 0.002488 11.687481 4.791012
v 0.002489 11.158776 4.707274
v 0.002488 10.681826 4.464255
v 0.002488 10.303314 4.085744
v 0.002488 10.060296 3.608793
v 0.002488 9.976558 3.080089
v -0.261864 13.314666 3.537960
v -0.500339 13.071648 3.951012
v -0.689595 12.693136 4.278811
v -0.811104 12.216186 4.489272
v -0.852973 11.687481 4.561791
v -0.811104 11.158776 4.489272
v -0.689595 10.681826 4.278811
v -0.500339 10.303314 3.951012
v -0.261864 10.060296 3.537961
v -0.455383 13.314666 3.344441
v -0.868435 13.071648 3.582916
v -1.196234 12.693136 3.772172
v -1.406695 12.216186 3.893681
v -1.479215 11.687481 3.935550
v -1.406695 11.158776 3.893681
v -1.196234 10.681826 3.772172
v -0.868435 10.303314 3.582916
v -0.455383 10.060296 3.344441
v -0.526216 13.314666 3.080089
v -1.003167 13.071648 3.080089
v -1.381678 12.693136 3.080089
v -1.624697 12.216186 3.080089
v -1.708435 11.687481 3.080089
v -1.624697 11.158776 3.080089
v -1.381678 10.681826 3.080089
v -1.003167 10.303314 3.080089
v -0.526216 10.060296 3.080089
v -0.455383 13.314666 2.815737
v -0.868435 13.071648 2.577261
v -1.196234 12.693136 2.388006
v -1.406695 12.216186 2.266496
v -1.479215 11.687481 2.224627
v -1.406695 11.158776 2.266496
v -1.196234 10.681826 2.388006
v -0.868435 10.303314 2.577261
v -0.455383 10.060296 2.815736
v -0.261864 13.314666 2.622217
v -0.500339 13.071648 2.209166
v -0.689595 12.693136 1.881366
v -0.811104 12.216186 1.670905
v -0.852973 11.687481 1.598386
v -0.811104 11.158776 1.670905
v -0.689595 10.681826 1.881366
v -0.500339 10.303314 2.209166
v -0.261864 10.060296 2.622217
v 0.002489 12.693136 1.695923
v 0.002489 10.681826 1.695923
vt 0.750000 0.500000
vt 0.750000 0.600000
vt 0.666667 0.600000
vt 0.666667 0.500000
vt 0.750000 0.800000
vt 0.750000 0.900000
vt 0.666667 0.900000
vt 0.666667 0.800000
vt 0.750000 0.100000
vt 0.750000 0.200000
vt 0.666667 0.200000
vt 0.666667 0.100000
vt 0.750000 0.400000
vt 0.666667 0.400000
vt 0.750000 0.700000
vt 0.666667 0.700000
vt 0.708333 0.000000
vt 0.750000 0.300000
vt 0.666667 0.300000
vt 0.708333 1.000000
vt 0.583333 0.600000
vt 0.583333 0.500000
vt 0.583333 0.900000
vt 0.583333 0.800000
vt 0.583333 0.200000
vt 0.583333 0.100000
vt 0.583333 0.400000
vt 0.583333 0.700000
vt 0.625000 0.000000
vt 0.583333 0.300000
vt 0.625000 1.000000
vt 0.541667 1.000000
vt 0.500000 0.900000
vt 0.500000 0.300000
vt 0.500000 0.200000
vt 0.500000 0.600000
vt 0.500000 0.500000
vt 0.500000 0.800000
vt 0.500000 0.100000
vt 0.500000 0.400000
vt 0.500000 0.700000
vt 0.541667 0.000000
vt 0.416667 0.700000
vt 0.416667 0.600000
vt 0.458333 1.000000
vt 0.416667 0.900000
vt 0.416667 0.300000
vt 0.416667 0.200000
vt 0.416667 0.500000
vt 0.416667 0.800000
vt 0.416667 0.100000
vt 0.416667 0.400000
vt 0.458333 0.000000
vt 0.375000 0.000000
vt 0.333333 0.100000
vt 0.333333 0.400000
vt 0.333333 0.300000
vt 0.333333 0.700000
vt 0.333333 0.600000
vt 0.375000 1.000000
vt 0.333333 0.900000
vt 0.333333 0.200000
vt 0.333333 0.500000
vt 0.333333 0.800000
vt 0.250000 0.500000
vt 0.250000 0.400000
vt 0.250000 0.800000
vt 0.250000 0.700000
vt 0.291667 0.000000
vt 0.250000 0.100000
vt 0.250000 0.300000
vt 0.250000 0.600000
vt 0.291667 1.000000
vt 0.250000 0.900000
vt 0.250000 0.200000
vt 0.166667 0.900000
vt 0.166667 0.800000
vt 0.166667 0.200000
vt 0.166667 0.100000
vt 0.166667 0.500000
vt 0.166667 0.400000
vt 0.166667 0.700000
vt 0.208333 0.000000
vt 0.166667 0.300000
vt 0.166667 0.600000
vt 0.208333 1.000000
vt 0.083333 0.600000
vt 0.083333 0.500000
vt 0.083333 0.900000
vt 0.083333 0.800000
vt 0.083333 0.200000
vt 0.083333 0.100000
vt 0.083333 0.400000
vt 0.083333 0.700000
vt 0.125000 0.000000
vt 0.083333 0.300000
vt 0.125000 1.000000
vt 0.041667 1.000000
vt 0.000000 0.900000
vt 0.000000 0.300000
vt 0.000000 0.200000
vt 0.000000 0.600000
vt 0.000000 0.500000
vt 0.000000 0.800000
vt 0.000000 0.100000
vt 0.000000 0.400000
vt 0.000000 0.700000
vt 0.041667 0.000000
vt 1.000000 0.300000
vt 1.000000 0.400000
vt 0.916667 0.400000
vt 0.916667 0.300000
vt 1.000000 0.600000
vt 1.000000 0.700000
vt 0.916667 0.700000
vt 0.916667 0.600000
vt 1.000000 0.900000
vt 0.958333 1.000000
vt 0.916667 0.900000
vt 1.000000 0.200000
vt 0.916667 0.200000
vt 1.000000 0.500000
vt 0.916667 0.500000
vt 1.000000 0.800000
vt 0.916667 0.800000
vt 1.000000 0.100000
vt 0.916667 0.100000
vt 0.958333 0.000000
vt 0.833333 0.800000
vt 0.833333 0.700000
vt 0.875000 0.000000
vt 0.833333 0.100000
vt 0.833333 0.400000
vt 0.833333 0.300000
vt 0.833333 0.600000
vt 0.875000 1.000000
vt 0.833333 0.900000
vt 0.833333 0.200000
vt 0.833333 0.500000
vt 0.791667 0.000000
vt 0.791667 1.000000
vn 0.2558 0.1512 -0.9548
vn 0.1208 0.8845 -0.4507
vn 0.1208 -0.8845 -0.4507
vn 0.2558 -0.1512 -0.9548
vn 0.1862 0.6947 -0.6947
vn 0.0419 -0.9868 -0.1563
vn 0.2322 -0.4416 -0.8666
vn 0.2322 0.4416 -0.8666
vn 0.0419 0.9868 -0.1563
vn 0.1862 -0.6947 -0.6947
vn 0.6990 0.1512 -0.6990
vn 0.3299 0.8845 -0.3299
vn 0.3299 -0.8845 -0.3299
vn 0.6990 -0.1512 -0.6990
vn 0.5086 0.6947 -0.5086
vn 0.1144 -0.9868 -0.1144
vn 0.6344 -0.4416 -0.6344
vn 0.6344 0.4416 -0.6344
vn 0.1144 0.9868 -0.1144
vn 0.5086 -0.6947 -0.5086
vn 0.1563 0.9868 -0.0419
vn 0.6947 -0.6947 -0.1862
vn 0.9548 0.1512 -0.2558
vn 0.4507 0.8845 -0.1208
vn 0.4507 -0.8845 -0.1208
vn 0.9548 -0.1512 -0.2558
vn 0.6947 0.6947 -0.1862
vn 0.1563 -0.9868 -0.0419
vn 0.8666 -0.4416 -0.2322
vn 0.8666 0.4416 -0.2322
vn 0.8666 0.4416 0.2322
vn 0.1563 0.9868 0.0419
vn 0.6947 -0.6947 0.1862
vn 0.9548 0.1512 0.2558
vn 0.4507 0.8845 0.1208
vn 0.4507 -0.8845 0.1208
vn 0.9548 -0.1512 0.2558
vn 0.6947 0.6947 0.1862
vn 0.1563 -0.9868 0.0419
vn 0.8666 -0.4416 0.2322
vn 0.1144 -0.9868 0.1144
vn 0.6344 -0.4416 0.6344
vn 0.6344 0.4416 0.6344
vn 0.1144 0.9868 0.1144
vn 0.5086 -0.6947 0.5086
vn 0.6990 0.1512 0.6990
vn 0.3299 0.8845 0.3299
vn 0.3299 -0.8845 0.3299
vn 0.6990 -0.1512 0.6990
vn 0.5086 0.6947 0.5086
vn 0.2558 -0.1512 0.9548
vn 0.1862 0.6947 0.6947
vn 0.0419 -0.9868 0.1563
vn 0.2322 -0.4416 0.8666
vn 0.2322 0.4416 0.8666
vn 0.0419 0.9868 0.1563
vn 0.1862 -0.6947 0.6947
vn 0.2558 0.1512 0.9548
vn 0.1208 0.8845 0.4507
vn 0.1208 -0.8845 0.4507
vn -0.1208 0.8845 0.4507
vn -0.1208 -0.8845 0.4507
vn -0.2558 -0.1512 0.9548
vn -0.1862 0.6947 0.6947
vn -0.0419 -0.9868 0.1563
vn -0.2322 -0.4416 0.8666
vn -0.2322 0.4416 0.8666
vn -0.0419 0.9868 0.1563
vn -0.1862 -0.6947 0.6947
vn -0.2558 0.1512 0.9548
vn -0.6990 0.1512 0.6990
vn -0.3299 0.8845 0.3299
vn -0.3299 -0.8845 0.3299
vn -0.6990 -0.1512 0.6990
vn -0.5086 0.6947 0.5086
vn -0.1144 -0.9868 0.1144
vn -0.6344 -0.4416 0.6344
vn -0.6344 0.4416 0.6344
vn -0.1144 0.9868 0.1144
vn -0.5086 -0.6947 0.5086
vn -0.1563 0.9868 0.0419
vn -0.6947 -0.6947 0.1862
vn -0.9548 0.1512 0.2558
vn -0.4507 0.8845 0.1208
vn -0.4507 -0.8845 0.1208
vn -0.9548 -0.1512 0.2558
vn -0.6947 0.6947 0.1862
vn -0.1563 -0.9868 0.0419
vn -0.8666 -0.4416 0.2322
vn -0.8666 0.4416 0.2322
vn -0.8666 -0.4416 -0.2322
vn -0.8666 0.4416 -0.2322
vn -0.1563 0.9868 -0.0419
vn -0.6947 -0.6947 -0.1862
vn -0.9548 0.1512 -0.2558
vn -0.4507 0.8845 -0.1208
vn -0.4507 -0.8845 -0.1208
vn -0.9548 -0.1512 -0.2558
vn -0.6947 0.6947 -0.1862
vn -0.1563 -0.9868 -0.0419
vn -0.5086 0.6947 -0.5086
vn -0.1144 -0.9868 -0.1144
vn -0.6344 -0.4416 -0.6344
vn -0.6344 0.4416 -0.6344
vn -0.1144 0.9868 -0.1144
vn -0.5086 -0.6947 -0.5086
vn -0.6990 0.1512 -0.6990
vn -0.3299 0.8845 -0.3299
vn -0.3299 -0.8845 -0.3299
vn -0.6990 -0.1512 -0.6990
vn -0.2558 -0.1512 -0.9548
vn -0.1862 0.6947 -0.6947
vn -0.0419 -0.9868 -0.1563
vn -0.2322 -0.4416 -0.8666
vn -0.2322 0.4416 -0.8666
vn -0.0419 0.9868 -0.1563
vn -0.1862 -0.6947 -0.6947
vn -0.2558 0.1512 -0.9548
vn -0.1208 0.8845 -0.4507
vn -0.1208 -0.8845 -0.4507
usemtl Material.002
s off
f 4/1/1 3/2/1 11/3/1 12/4/1
f 2/5/2 1/6/2 8/7/2 9/8/2
f 7/9/3 6/10/3 15/11/3 16/12/3
f 5/13/4 4/1/4 12/4/4 13/14/4
f 109/15/5 2/5/5 9/8/5 10/16/5
f 63/17/6 7/9/6 16/12/6
f 110/18/7 5/13/7 13/14/7 14/19/7
f 3/2/8 109/15/8 10/16/8 11/3/8
f 1/6/9 53/20/9 8/7/9
f 6/10/10 110/18/10 14/19/10 15/11/10
f 12/4/11 11/3/11 20/21/11 21/22/11
f 9/8/12 8/7/12 17/23/12 18/24/12
f 16/12/13 15/11/13 24/25/13 25/26/13
f 13/14/14 12/4/14 21/22/14 22/27/14
f 10/16/15 9/8/15 18/24/15 19/28/15
f 63/29/16 16/12/16 25/26/16
f 14/19/17 13/14/17 22/27/17 23/30/17
f 11/3/18 10/16/18 19/28/18 20/21/18
f 8/7/19 53/31/19 17/23/19
f 15/11/20 14/19/20 23/30/20 24/25/20
f 17/23/21 53/32/21 26/33/21
f 24/25/22 23/30/22 32/34/22 33/35/22
f 21/22/23 20/21/23 29/36/23 30/37/23
f 18/24/24 17/23/24 26/33/24 27/38/24
f 25/26/25 24/25/25 33/35/25 34/39/25
f 22/27/26 21/22/26 30/37/26 31/40/26
f 19/28/27 18/24/27 27/38/27 28/41/27
f 63/42/28 25/26/28 34/39/28
f 23/30/29 22/27/29 31/40/29 32/34/29
f 20/21/30 19/28/30 28/41/30 29/36/30
f 29/36/31 28/41/31 37/43/31 38/44/31
f 26/33/32 53/45/32 35/46/32
f 33/35/33 32/34/33 41/47/33 42/48/33
f 30/37/34 29/36/34 38/44/34 39/49/34
f 27/38/35 26/33/35 35/46/35 36/50/35
f 34/39/36 33/35/36 42/48/36 43/51/36
f 31/40/37 30/37/37 39/49/37 40/52/37
f 28/41/38 27/38/38 36/50/38 37/43/38
f 63/53/39 34/39/39 43/51/39
f 32/34/40 31/40/40 40/52/40 41/47/40
f 63/54/41 43/51/41 52/55/41
f 41/47/42 40/52/42 49/56/42 50/57/42
f 38/44/43 37/43/43 46/58/43 47/59/43
f 35/46/44 53/60/44 44/61/44
f 42/48/45 41/47/45 50/57/45 51/62/45
f 39/49/46 38/44/46 47/59/46 48/63/46
f 36/50/47 35/46/47 44/61/47 45/64/47
f 43/51/48 42/48/48 51/62/48 52/55/48
f 40/52/49 39/49/49 48/63/49 49/56/49
f 37/43/50 36/50/50 45/64/50 46/58/50
f 49/56/51 48/63/51 58/65/51 59/66/51
f 46/58/52 45/64/52 55/67/52 56/68/52
f 63/69/53 52/55/53 62/70/53
f 50/57/54 49/56/54 59/66/54 60/71/54
f 47/59/55 46/58/55 56/68/55 57/72/55
f 44/61/56 53/73/56 54/74/56
f 51/62/57 50/57/57 60/71/57 61/75/57
f 48/63/58 47/59/58 57/72/58 58/65/58
f 45/64/59 44/61/59 54/74/59 55/67/59
f 52/55/60 51/62/60 61/75/60 62/70/60
f 55/67/61 54/74/61 64/76/61 65/77/61
f 62/70/62 61/75/62 71/78/62 72/79/62
f 59/66/63 58/65/63 68/80/63 69/81/63
f 56/68/64 55/67/64 65/77/64 66/82/64
f 63/83/65 62/70/65 72/79/65
f 60/71/66 59/66/66 69/81/66 70/84/66
f 57/72/67 56/68/67 66/82/67 67/85/67
f 54/74/68 53/86/68 64/76/68
f 61/75/69 60/71/69 70/84/69 71/78/69
f 58/65/70 57/72/70 67/85/70 68/80/70
f 68/80/71 67/85/71 76/87/71 77/88/71
f 65/77/72 64/76/72 73/89/72 74/90/72
f 72/79/73 71/78/73 80/91/73 81/92/73
f 69/81/74 68/80/74 77/88/74 78/93/74
f 66/82/75 65/77/75 74/90/75 75/94/75
f 63/95/76 72/79/76 81/92/76
f 70/84/77 69/81/77 78/93/77 79/96/77
f 67/85/78 66/82/78 75/94/78 76/87/78
f 64/76/79 53/97/79 73/89/79
f 71/78/80 70/84/80 79/96/80 80/91/80
f 73/89/81 53/98/81 82/99/81
f 80/91/82 79/96/82 88/100/82 89/101/82
f 77/88/83 76/87/83 85/102/83 86/103/83
f 74/90/84 73/89/84 82/99/84 83/104/84
f 81/92/85 80/91/85 89/101/85 90/105/85
f 78/93/86 77/88/86 86/103/86 87/106/86
f 75/94/87 74/90/87 83/104/87 84/107/87
f 63/108/88 81/92/88 90/105/88
f 79/96/89 78/93/89 87/106/89 88/100/89
f 76/87/90 75/94/90 84/107/90 85/102/90
f 88/109/91 87/110/91 96/111/91 97/112/91
f 85/113/92 84/114/92 93/115/92 94/116/92
f 82/117/93 53/118/93 91/119/93
f 89/120/94 88/109/94 97/112/94 98/121/94
f 86/122/95 85/113/95 94/116/95 95/123/95
f 83/124/96 82/117/96 91/119/96 92/125/96
f 90/126/97 89/120/97 98/121/97 99/127/97
f 87/110/98 86/122/98 95/123/98 96/111/98
f 84/114/99 83/124/99 92/125/99 93/115/99
f 63/128/100 90/126/100 99/127/100
f 93/115/101 92/125/101 101/129/101 102/130/101
f 63/131/102 99/127/102 108/132/102
f 97/112/103 96/111/103 105/133/103 106/134/103
f 94/116/104 93/115/104 102/130/104 103/135/104
f 91/119/105 53/136/105 100/137/105
f 98/121/106 97/112/106 106/134/106 107/138/106
f 95/123/107 94/116/107 103/135/107 104/139/107
f 92/125/108 91/119/108 100/137/108 101/129/108
f 99/127/109 98/121/109 107/138/109 108/132/109
f 96/111/110 95/123/110 104/139/110 105/133/110
f 105/133/111 104/139/111 4/1/111 5/13/111
f 102/130/112 101/129/112 2/5/112 109/15/112
f 63/140/113 108/132/113 7/9/113
f 106/134/114 105/133/114 5/13/114 110/18/114
f 103/135/115 102/130/115 109/15/115 3/2/115
f 100/137/116 53/141/116 1/6/116
f 107/138/117 106/134/117 110/18/117 6/10/117
f 104/139/118 103/135/118 3/2/118 4/1/118
f 101/129/119 100/137/119 1/6/119 2/5/119
f 108/132/120 107/138/120 6/10/120 7/9/120
