# Blender v3.0.1 OBJ File: 'RockC.blend'
# www.blender.org
mtllib RockC.mtl
o RockSet05C
v -1.232173 -6.954638 -3.599406
v 0.863797 -5.998290 -4.946908
v -1.561502 -7.474495 -1.321443
v -2.766904 -5.787254 -4.247865
v -1.779016 -5.656917 -5.033157
v 0.004404 -3.732117 -5.325144
v 2.433914 -7.191677 -3.788441
v 2.986519 -7.361734 -2.153106
v -3.911044 -6.692151 -0.552343
v -2.339074 -4.693704 -4.751162
v 3.566162 -6.760817 -4.066092
v 4.354240 -6.661834 -3.115030
v 4.083829 -5.738719 -4.077470
v -2.067589 -1.824543 -4.469828
v -3.578073 -4.197195 -3.901853
v -3.747499 -5.863363 -2.911722
v -4.623856 -4.380686 -3.148215
v 3.366853 -3.192729 -4.637381
v 3.158643 -4.689394 -4.827198
v 4.684729 -4.068982 -3.812637
v 4.116981 -0.480195 -3.638929
v 2.010471 -1.581147 -4.974910
v -4.824191 -3.073988 -3.126336
v -4.020317 -1.640134 -3.627367
v 0.936136 1.092890 -4.713855
v -4.250407 1.532578 -2.656494
v -3.012860 1.185426 -3.996116
v -1.145477 3.250915 -4.350607
v 5.064080 1.460903 -1.813303
v 0.530294 4.448058 -4.426393
v -0.447225 6.030834 -3.550312
v 4.831865 4.702898 -0.556945
v 2.540016 4.734952 -3.778841
v -0.914402 6.867661 -1.343132
v -2.754949 4.897139 -3.320473
v -3.388677 5.486843 -1.799083
v 4.340755 4.854445 -2.383129
v 4.329547 6.339945 -1.124264
v 2.810753 6.869542 -1.638281
v -4.025101 3.938347 -1.126332
v -2.574191 5.042859 0.596549
v 4.222985 6.730771 -0.365306
v 0.637195 6.947346 1.670582
v 3.277532 6.679379 0.733848
v 2.263028 6.669574 2.868032
v 0.872902 6.104053 3.075678
v -0.441457 6.045226 2.540908
v -1.554081 4.884175 2.530060
v 1.531281 5.655088 3.574194
v 3.677347 5.572840 2.710696
v 2.599902 5.811258 3.565278
v 1.831848 4.276227 4.010726
v 2.442092 2.914267 4.485746
v 3.151576 4.203153 3.928425
v -0.338615 3.358510 3.579029
v 3.370645 2.415717 4.494485
v 4.260914 2.344517 3.644741
v 2.804166 1.369174 4.916780
v 1.809339 1.147146 4.699224
v -1.396040 0.788690 3.915437
v -2.368951 1.777215 3.030874
v 3.898621 0.540538 4.973464
v 3.167687 0.334696 5.355601
v 0.299242 -1.761333 4.692415
v -1.885659 -0.484729 4.239022
v -1.856140 -2.115267 4.562336
v 3.434289 -1.132131 5.315634
v -3.019100 -1.751570 3.471342
v -2.125083 -4.755090 3.896981
v 4.056928 -4.392854 5.147456
v -3.970495 -6.006112 1.736326
v 1.821371 -6.193896 4.257526
v 4.544995 -6.669676 3.897637
v -1.696284 -7.191840 2.014081
v -5.121113 -4.152483 -1.351129
v -4.447685 -3.379954 1.385797
v -3.958368 -0.149374 1.445565
v -5.123132 -1.754207 -2.428041
v -4.865059 -0.176715 -0.788849
v 2.896940 -7.561509 1.049363
v 5.109567 -6.792324 -0.050397
v 5.396831 -6.729251 1.850429
v 5.789923 -3.992691 1.375256
v 5.065261 -4.431020 -1.878092
v 3.915044 -7.267815 -3.277978
v 5.675029 -5.561989 3.325471
v 5.198557 -2.284219 3.919709
v 5.332968 -5.225620 4.564736
v 5.527644 0.665723 -0.266627
v 5.150275 2.510810 1.386686
vt 0.446171 0.595978
vt 0.449760 0.330438
vt 0.474035 0.596163
vt 0.796366 0.460514
vt 0.796366 0.834930
vt 0.781919 0.769362
vt 0.098929 0.031453
vt 0.065439 0.083688
vt 0.027165 0.010976
vt 0.295491 0.521162
vt 0.315726 0.495892
vt 0.319360 0.544669
vt 0.823676 0.094159
vt 0.806554 0.110645
vt 0.801202 0.091327
vt 0.011163 0.125860
vt 0.030492 0.099628
vt 0.055699 0.197141
vt 0.214048 0.606520
vt 0.193289 0.621552
vt 0.195785 0.236248
vt 0.479639 0.248143
vt 0.513378 0.155695
vt 0.527565 0.247058
vt 0.954623 0.392668
vt 0.865577 0.408374
vt 0.885683 0.088408
vt 0.152911 0.656363
vt 0.135641 0.651632
vt 0.150674 0.612031
vt 0.661834 0.057049
vt 0.638709 0.028668
vt 0.661810 0.012253
vt 0.682936 0.049803
vt 0.289509 0.709309
vt 0.312270 0.682097
vt 0.340076 0.709309
vt 0.710471 0.391136
vt 0.735932 0.284252
vt 0.750250 0.343544
vt 0.711012 0.858859
vt 0.667056 0.887731
vt 0.625713 0.717016
vt 0.194911 0.163416
vt 0.207290 0.190239
vt 0.751436 0.863173
vt 0.686803 0.605494
vt 0.644111 0.097715
vt 0.641805 0.061579
vt 0.728738 0.200503
vt 0.598990 0.069385
vt 0.584802 0.239454
vt 0.407557 0.736305
vt 0.391559 0.652807
vt 0.407557 0.631105
vt 0.340430 0.112326
vt 0.317664 0.110701
vt 0.280088 0.002395
vt 0.087234 0.079533
vt 0.043947 0.453920
vt 0.055155 0.434493
vt 0.050687 0.516544
vt 0.344801 0.676684
vt 0.362516 0.631105
vt 0.364283 0.655425
vt 0.472572 0.002395
vt 0.564501 0.011744
vt 0.470862 0.123642
vt 0.991002 0.360974
vt 0.991002 0.119219
vt 0.412282 0.665910
vt 0.423070 0.631105
vt 0.423070 0.706335
vt 0.607269 0.250296
vt 0.618516 0.285572
vt 0.612224 0.312285
vt 0.628132 0.052486
vt 0.251495 0.696392
vt 0.280806 0.684664
vt 0.284784 0.751076
vt 0.259142 0.014253
vt 0.268901 0.242357
vt 0.238352 0.268737
vt 0.249740 0.357833
vt 0.218773 0.362058
vt 0.456989 0.226966
vt 0.436161 0.214218
vt 0.501626 0.570542
vt 0.712425 0.934382
vt 0.741888 0.908826
vt 0.521197 0.628031
vt 0.974370 0.081802
vt 0.904238 0.002395
vt 0.874941 0.018148
vt 0.427625 0.570161
vt 0.417326 0.606369
vt 0.408590 0.626316
vt 0.839396 0.390010
vt 0.781919 0.322118
vt 0.280804 0.624085
vt 0.837337 0.118336
vt 0.167147 0.429478
vt 0.155155 0.070258
vt 0.210117 0.071903
vt 0.214048 0.135065
vt 0.140916 0.517053
vt 0.114182 0.667339
vt 0.082114 0.641885
vt 0.128612 0.479063
vt 0.022650 0.376233
vt 0.008999 0.312143
vt 0.603715 0.460067
vt 0.656167 0.560092
vt 0.642015 0.568497
vt 0.875095 0.455726
vt 0.364283 0.696821
vt 0.351756 0.730530
vt 0.312477 0.631105
vt 0.138270 0.446613
vt 0.127318 0.017323
vt 0.161753 0.002395
vt 0.755786 0.274580
vt 0.603715 0.682641
vt 0.645059 0.588928
vt 0.615374 0.608932
vt 0.759441 0.046555
vt 0.723193 0.092237
vt 0.610208 0.767477
vt 0.665821 0.573285
vt 0.725918 0.574800
vt 0.751436 0.609602
vt 0.777193 0.409028
vt 0.777193 0.562559
vt 0.745390 0.387290
vt 0.646403 0.254041
vt 0.615618 0.180894
vt 0.664510 0.282165
vt 0.645703 0.165787
vt 0.616377 0.126535
vt 0.605454 0.002395
vt 0.579716 0.386365
vt 0.567549 0.583251
vt 0.598990 0.312874
vt 0.284784 0.631105
vt 0.262538 0.662498
vt 0.285581 0.552033
vt 0.369008 0.655637
vt 0.386833 0.631105
vt 0.386833 0.735861
vt 0.254221 0.525640
vt 0.231896 0.631105
vt 0.246770 0.670638
vt 0.218773 0.734468
vt 0.246770 0.822679
vt 0.432350 0.118294
vt 0.239652 0.480665
vt 0.265062 0.482461
vt 0.395238 0.038340
vt 0.427625 0.406418
vt 0.347830 0.202310
vt 0.416948 0.452971
vt 0.359772 0.341750
vt 0.425328 0.507011
vt 0.231236 0.380493
vt 0.287304 0.434404
vt 0.756161 0.647460
vt 0.765476 0.573285
vt 0.765476 0.776955
vt 0.965799 0.430188
vt 0.285029 0.497902
vn -0.7929 -0.0149 -0.6091
vn -0.7614 0.5450 -0.3511
vn -0.5749 0.5127 -0.6377
vn -0.8084 0.5303 0.2555
vn -0.8972 0.4077 0.1695
vn -0.9219 -0.1538 0.3557
vn 0.8324 -0.4152 0.3670
vn 0.7600 -0.5372 0.3658
vn 0.4380 -0.8417 0.3157
vn -0.0019 -0.0677 -0.9977
vn 0.0700 -0.2952 -0.9529
vn -0.2907 -0.4041 -0.8673
vn 0.3426 -0.9032 -0.2585
vn 0.2446 -0.8176 -0.5213
vn 0.2985 -0.7653 -0.5703
vn 0.3703 -0.2597 0.8919
vn 0.7188 0.1486 0.6791
vn 0.7857 -0.0807 0.6133
vn 0.5003 0.4017 -0.7670
vn 0.7652 0.0943 -0.6369
vn 0.6181 0.3510 -0.7034
vn -0.8252 0.3617 0.4339
vn -0.9812 0.1929 -0.0032
vn -0.2674 -0.9388 0.2171
vn -0.0017 -1.0000 -0.0086
vn -0.1804 -0.9667 0.1816
vn 0.3675 0.8995 -0.2364
vn 0.7581 0.6497 -0.0558
vn 0.5753 0.7785 -0.2509
vn -0.4243 0.5758 0.6989
vn -0.0169 0.9352 0.3537
vn -0.1859 0.9181 0.3502
vn -0.3153 0.6801 0.6619
vn 0.5172 -0.8255 -0.2259
vn 0.9769 -0.0371 0.2106
vn 0.8074 -0.5055 -0.3044
vn -0.2941 0.2021 0.9342
vn -0.3586 0.0211 0.9332
vn -0.1044 0.0676 0.9922
vn -0.5302 0.8380 0.1291
vn 0.6309 0.1794 -0.7549
vn 0.4940 0.3750 -0.7845
vn 0.2025 0.7883 -0.5811
vn -0.3485 0.5577 0.7534
vn -0.4325 0.1453 0.8898
vn -0.1710 0.3227 0.9309
vn -0.6179 -0.1573 0.7704
vn -0.9134 -0.1301 0.3858
vn -0.9489 -0.2506 -0.1917
vn -0.5116 -0.7293 -0.4543
vn -0.8623 -0.4486 -0.2351
vn -0.1383 0.1907 -0.9719
vn -0.1515 0.5014 -0.8518
vn 0.9742 0.1181 0.1923
vn 0.6982 0.4502 0.5566
vn 0.6216 0.5550 0.5527
vn 0.4410 -0.0164 0.8973
vn -0.6837 -0.6859 0.2492
vn -0.8722 -0.3963 0.2869
vn -0.3227 -0.5535 0.7677
vn -0.8686 0.2415 -0.4328
vn -0.8744 0.1300 -0.4674
vn -0.7299 -0.2658 -0.6297
vn 0.3653 0.1628 0.9165
vn 0.0487 -0.1968 0.9792
vn 0.0945 0.2284 0.9690
vn 0.1225 0.8775 0.4636
vn -0.4212 0.3739 -0.8263
vn -0.0948 -0.1079 -0.9896
vn -0.8189 0.2147 -0.5322
vn 0.7790 -0.5988 0.1861
vn 0.4203 -0.6388 -0.6444
vn -0.0511 -0.8362 -0.5461
vn 0.9156 -0.1541 -0.3714
vn 0.6341 -0.0070 -0.7732
vn 0.7515 0.6534 -0.0910
vn 0.7061 0.7039 0.0775
vn 0.9327 0.2319 0.2762
vn 0.7860 0.5996 0.1506
vn 0.9237 0.3663 -0.1125
vn -0.6415 0.1352 0.7551
vn -0.5604 0.4957 0.6635
vn -0.7174 0.0683 0.6933
vn 0.0602 -0.0014 0.9982
vn -0.1473 -0.0296 0.9886
vn -0.1553 -0.0131 0.9878
vn -0.5298 -0.3049 -0.7914
vn -0.6217 -0.4419 -0.6468
vn 0.2204 0.3680 -0.9033
vn 0.5351 0.2758 -0.7985
usemtl Rock_05
s 1
f 35/1/1 26/2/2 36/3/3
f 79/4/4 41/5/5 40/6/6
f 82/7/7 86/8/8 73/9/9
f 5/10/10 6/11/11 2/12/12
f 85/13/13 7/14/14 11/15/15
f 70/16/16 88/17/17 87/18/18
f 33/19/19 37/20/20 21/21/21
f 79/22/4 76/23/22 77/24/23
f 70/16/16 73/9/9 88/17/17
f 74/25/24 3/26/25 80/27/26
f 39/28/27 42/29/28 38/30/29
f 46/31/30 45/32/31 43/33/32
f 46/31/30 43/33/32 47/34/33
f 8/35/34 12/36/35 84/37/36
f 64/38/37 60/39/38 65/40/39
f 34/41/40 41/42/5 43/43/32
f 20/44/41 18/45/42 21/21/21
f 31/46/43 34/41/40 39/47/27
f 52/48/44 49/49/45 55/50/46
f 76/23/22 69/51/47 68/52/48
f 75/53/49 17/54/50 16/55/51
f 30/56/52 28/57/53 31/58/43
f 87/18/18 86/8/8 83/59/54
f 56/60/55 57/61/56 54/62/57
f 12/63/35 8/64/34 85/65/13
f 9/66/58 71/67/59 75/68/49
f 69/69/47 74/25/24 72/70/60
f 23/71/61 78/72/62 24/73/63
f 62/74/64 63/75/65 67/76/66
f 51/77/67 45/32/31 49/49/45
f 6/78/11 10/79/68 14/80/69
f 35/81/1 27/82/70 26/83/2
f 26/83/2 24/84/63 78/85/62
f 78/86/62 23/87/61 75/68/49
f 75/68/49 79/22/4 78/86/62
f 79/22/4 40/88/6 26/2/2
f 26/2/2 40/88/6 36/3/3
f 36/89/3 34/41/40 35/90/1
f 34/41/40 31/46/43 35/90/1
f 78/86/62 79/22/4 26/2/2
f 79/22/4 77/24/23 41/91/5
f 82/7/7 83/59/54 86/8/8
f 86/8/8 88/17/17 73/9/9
f 73/92/9 80/27/26 82/93/7
f 80/27/26 81/94/71 82/93/7
f 2/12/12 13/95/72 11/96/15
f 11/96/15 7/97/14 2/12/12
f 7/14/14 1/98/73 2/99/12
f 1/100/73 5/10/10 2/12/12
f 85/13/13 8/101/34 7/14/14
f 29/102/74 84/103/36 21/21/21
f 21/21/21 84/103/36 20/44/41
f 84/103/36 13/104/72 20/44/41
f 13/104/72 19/105/75 20/44/41
f 21/21/21 37/20/20 29/102/74
f 37/20/20 39/28/27 38/30/29
f 38/30/29 42/29/28 32/106/76
f 42/29/28 44/107/77 32/106/76
f 37/20/20 38/30/29 32/106/76
f 29/102/74 37/20/20 32/106/76
f 44/107/77 50/108/78 90/109/79
f 57/61/56 56/60/55 62/110/64
f 44/107/77 90/109/79 32/106/76
f 50/108/78 57/61/56 90/109/79
f 87/18/18 83/59/54 90/109/79
f 57/61/56 62/110/64 87/18/18
f 62/110/64 67/111/66 87/18/18
f 88/17/17 86/8/8 87/18/18
f 87/18/18 90/109/79 57/61/56
f 67/111/66 70/16/16 87/18/18
f 70/112/16 72/113/60 73/114/9
f 3/26/25 1/98/73 8/101/34
f 1/98/73 7/14/14 8/101/34
f 8/101/34 81/94/71 80/27/26
f 74/25/24 9/115/58 3/26/25
f 73/92/9 72/70/60 80/27/26
f 72/70/60 74/25/24 80/27/26
f 8/101/34 80/27/26 3/26/25
f 12/63/35 85/65/13 11/116/15
f 11/116/15 13/117/72 12/63/35
f 13/118/72 84/37/36 12/36/35
f 89/119/80 32/106/76 90/109/79
f 84/103/36 89/119/80 83/59/54
f 89/119/80 90/109/79 83/59/54
f 83/59/54 82/7/7 81/120/71
f 84/103/36 83/59/54 81/120/71
f 81/120/71 8/121/34 84/103/36
f 64/38/37 55/50/46 60/39/38
f 60/39/38 61/122/81 65/40/39
f 43/43/32 45/123/31 44/124/77
f 44/124/77 45/123/31 50/125/78
f 44/124/77 34/41/40 43/43/32
f 34/41/40 36/89/3 41/42/5
f 36/3/3 40/88/6 41/91/5
f 41/126/5 48/127/82 47/34/33
f 41/42/5 47/128/33 43/43/32
f 20/44/41 19/105/75 18/45/42
f 34/41/40 44/124/77 39/47/27
f 44/124/77 42/129/28 39/47/27
f 39/47/27 37/130/20 33/131/19
f 33/131/19 31/46/43 39/47/27
f 68/132/48 69/133/47 66/134/83
f 69/133/47 72/113/60 64/38/37
f 66/134/83 69/133/47 64/38/37
f 72/113/60 70/112/16 64/38/37
f 70/112/16 67/76/66 64/38/37
f 63/75/65 62/74/64 58/135/84
f 62/74/64 56/136/55 58/135/84
f 67/76/66 63/75/65 59/137/85
f 64/38/37 67/76/66 59/137/85
f 64/38/37 65/40/39 66/134/83
f 61/122/81 60/39/38 55/50/46
f 48/127/82 61/122/81 55/50/46
f 55/50/46 64/38/37 59/137/85
f 58/135/84 53/138/86 59/137/85
f 63/75/65 58/135/84 59/137/85
f 48/127/82 55/50/46 47/34/33
f 46/31/30 47/34/33 55/50/46
f 49/49/45 45/32/31 46/31/30
f 49/49/45 46/31/30 55/50/46
f 54/139/57 50/140/78 51/77/67
f 53/138/86 54/139/57 52/48/44
f 54/139/57 51/77/67 52/48/44
f 52/48/44 51/77/67 49/49/45
f 59/137/85 52/48/44 55/50/46
f 61/141/81 48/142/82 41/91/5
f 41/91/5 77/24/23 61/141/81
f 77/24/23 76/23/22 68/52/48
f 61/141/81 77/24/23 68/52/48
f 76/23/22 79/22/4 75/68/49
f 75/68/49 71/67/59 76/23/22
f 71/67/59 69/51/47 76/23/22
f 68/132/48 66/134/83 65/40/39
f 68/52/48 65/143/39 61/141/81
f 4/144/87 10/79/68 5/145/10
f 5/10/10 1/100/73 4/146/87
f 1/147/73 3/148/25 16/149/51
f 4/146/87 1/100/73 16/150/51
f 3/151/25 9/152/58 16/153/51
f 9/152/58 75/154/49 16/153/51
f 75/68/49 23/87/61 17/155/50
f 17/156/50 15/157/88 16/150/51
f 32/106/76 89/119/80 29/102/74
f 89/119/80 84/103/36 29/102/74
f 27/82/70 35/81/1 28/57/53
f 35/81/1 31/58/43 28/57/53
f 33/158/19 21/159/21 25/160/89
f 21/159/21 18/161/42 22/162/90
f 25/160/89 21/159/21 22/162/90
f 18/161/42 19/163/75 6/11/11
f 19/163/75 13/95/72 2/12/12
f 6/11/11 19/163/75 2/12/12
f 6/11/11 25/160/89 22/162/90
f 6/11/11 22/162/90 18/161/42
f 25/160/89 28/57/53 30/56/52
f 25/160/89 30/56/52 33/158/19
f 24/84/63 26/83/2 27/82/70
f 17/156/50 23/164/61 15/157/88
f 23/164/61 24/84/63 15/157/88
f 14/165/69 15/157/88 24/84/63
f 28/57/53 14/165/69 27/82/70
f 27/82/70 14/165/69 24/84/63
f 33/158/19 30/56/52 31/58/43
f 53/166/86 52/167/44 59/168/85
f 57/61/56 50/108/78 54/62/57
f 54/139/57 53/138/86 56/136/55
f 53/138/86 58/135/84 56/136/55
f 9/115/58 74/25/24 71/169/59
f 69/69/47 71/169/59 74/25/24
f 51/77/67 50/140/78 45/32/31
f 25/160/89 6/11/11 14/165/69
f 6/78/11 5/145/10 10/79/68
f 10/170/68 4/146/87 15/157/88
f 4/146/87 16/150/51 15/157/88
f 15/157/88 14/165/69 10/170/68
f 14/165/69 28/57/53 25/160/89
