# Blender v3.0.1 OBJ File: 'RockB.blend'
# www.blender.org
mtllib RockB.mtl
o RockSet05B
v -1.501571 -5.355145 -5.274930
v 0.385732 -3.760594 -5.960389
v 3.657362 -6.922122 -3.772897
v 4.583125 -6.136322 -4.712323
v 5.386339 -6.620431 -3.857286
v 6.046440 -5.976780 -0.578375
v 5.741304 -6.256656 -3.263433
v 5.370387 -5.168602 -3.919225
v 6.389691 -4.705726 -0.866417
v 6.163886 -5.516046 1.915703
v 6.734982 -4.900279 0.718819
v 5.136027 -5.320387 3.629179
v 2.312814 -6.671838 3.059980
v 1.127715 -6.438335 5.417112
v 2.862400 -5.125306 4.674558
v 5.614889 -2.429070 2.061951
v 4.738801 1.118937 1.343997
v 3.038702 0.456454 4.018308
v 2.678560 -0.745056 -5.369997
v 3.845388 -0.014187 -3.720050
v 3.639393 2.667067 2.903337
v 2.229482 1.201002 -5.139636
v 2.985887 2.769042 -4.010289
v 3.518714 5.552458 -1.424174
v 3.532137 5.879686 0.523546
v 3.235866 6.289150 2.104222
v 2.596238 6.892912 -1.880986
v 1.816720 5.629207 -3.866955
v -1.659961 1.282169 -3.761689
v 1.103590 6.899427 -3.138406
v -3.800679 1.705230 -1.848425
v -4.006813 0.270490 -2.662919
v -4.232883 -1.258234 -3.660676
v -5.709236 -4.730537 -3.239536
v -4.666411 -4.984128 -4.427380
v -6.236722 -5.989483 -2.222541
v -4.025541 -6.379121 -3.051566
v -5.540183 -2.847502 -0.701617
v -6.237566 -6.314854 0.166399
v -5.246743 -6.729241 -0.595607
v -6.118042 -3.494646 1.445460
v -4.809334 4.266352 0.462925
v -5.928286 2.149127 1.269563
v -5.953543 -0.516598 2.271162
v -4.565746 0.896694 3.830068
v -5.902979 2.909165 2.402480
v -5.322857 3.853086 2.392125
v -4.806221 3.431036 3.248283
v -5.880507 -5.017208 3.644830
v -4.992351 -3.737469 4.294566
v -4.981527 -5.120865 4.812737
v -4.079637 6.164888 3.221658
v -4.233695 -5.124754 5.482751
v -4.979436 -5.850579 4.414868
v -2.138200 6.918892 4.037490
v -0.881814 6.360271 4.996434
v -1.875317 3.917891 5.143201
v -1.646509 0.529014 6.232010
v -2.402055 -4.401224 6.533917
v -2.671664 -5.273101 6.624565
v -2.367427 -3.048119 6.361928
v -1.634386 -1.078608 6.457027
v -0.199764 0.776738 6.156445
v -1.315828 -2.377149 6.464747
v -0.495914 -3.402557 6.281935
v -1.609736 -5.041565 6.737469
v 0.922021 3.813762 5.229884
v 0.021173 -5.670970 6.337755
v -1.144814 -6.008763 6.478992
v -2.103143 -5.686717 6.661817
v -2.218851 -6.086076 6.165823
v -3.740268 -6.358936 4.294840
v -6.187236 -6.411950 1.871657
v 2.288256 5.769116 4.045122
v 1.981531 7.180986 2.571468
v -2.716301 6.894721 -0.579431
v -2.922637 5.828588 -2.199554
vt 0.696944 0.215013
vt 0.666022 0.260057
vt 0.656470 0.199235
vt 0.828890 0.164448
vt 0.820536 0.015953
vt 0.839707 0.035002
vt 0.534250 0.597484
vt 0.581336 0.516717
vt 0.614563 0.626727
vt 0.727893 0.399954
vt 0.690267 0.338030
vt 0.687967 0.274211
vt 0.049381 0.408528
vt 0.014938 0.422556
vt 0.011663 0.337975
vt 0.870977 0.030461
vt 0.904108 0.042001
vt 0.863483 0.097670
vt 0.301619 0.426459
vt 0.325575 0.509084
vt 0.298019 0.530548
vt 0.844335 0.311591
vt 0.869713 0.242762
vt 0.881278 0.380805
vt 0.980870 0.629156
vt 0.953021 0.675735
vt 0.950437 0.619458
vt 0.546486 0.290915
vt 0.486974 0.421917
vt 0.489980 0.346213
vt 0.839707 0.596637
vt 0.811128 0.587781
vt 0.821256 0.426156
vt 0.464023 0.750774
vt 0.507464 0.631245
vt 0.548846 0.703110
vt 0.370811 0.079687
vt 0.361801 0.146015
vt 0.343060 0.082926
vt 0.692043 0.104140
vt 0.752584 0.084858
vt 0.422256 0.077146
vt 0.418911 0.039385
vt 0.428171 0.058628
vt 0.344679 0.489823
vt 0.320608 0.462588
vt 0.357077 0.368910
vt 0.149726 0.024006
vt 0.194023 0.038418
vt 0.158891 0.075787
vt 0.632347 0.362489
vt 0.642114 0.590084
vt 0.197760 0.147955
vt 0.493584 0.275837
vt 0.467663 0.154741
vt 0.529164 0.085726
vt 0.388850 0.081015
vt 0.903564 0.690448
vt 0.310930 0.015953
vt 0.364332 0.044873
vt 0.350375 0.622326
vt 0.953343 0.094132
vt 0.919007 0.112488
vt 0.754959 0.663685
vt 0.821033 0.656511
vt 0.003882 0.702107
vt 0.020663 0.633304
vt 0.043403 0.702107
vt 0.869530 0.676823
vt 0.843680 0.407453
vt 0.889248 0.637032
vt 0.795912 0.040788
vt 0.225743 0.370202
vt 0.181572 0.562640
vt 0.169762 0.514247
vt 0.167676 0.586617
vt 0.224606 0.279133
vt 0.225743 0.124670
vt 0.700780 0.411115
vt 0.614379 0.719612
vt 0.605075 0.681531
vt 0.614379 0.631245
vt 0.067432 0.628786
vt 0.048738 0.595274
vt 0.096311 0.605706
vt 0.996118 0.242395
vt 0.976877 0.327411
vt 0.978935 0.069747
vt 0.792326 0.335238
vt 0.580764 0.737810
vt 0.580764 0.898860
vt 0.514333 0.992377
vt 0.473160 0.949791
vt 0.432144 0.762204
vt 0.710962 0.052186
vt 0.022205 0.536134
vt 0.838268 0.338885
vt 0.770045 0.520289
vt 0.722204 0.568307
vt 0.665518 0.157938
vt 0.403084 0.519255
vt 0.409280 0.638446
vt 0.381650 0.662594
vt 0.318609 0.298542
vt 0.420238 0.184400
vt 0.423049 0.119512
vt 0.646088 0.163872
vt 0.653355 0.136316
vt 0.668991 0.106873
vt 0.428171 0.280302
vt 0.423998 0.357280
vt 0.003882 0.224068
vt 0.005425 0.177504
vt 0.015652 0.175602
vt 0.038574 0.083959
vt 0.059099 0.115958
vt 0.117713 0.015953
vt 0.629888 0.276343
vt 0.469612 0.596994
vt 0.442147 0.586172
vt 0.630306 0.072447
vt 0.642114 0.194714
vt 0.616498 0.015953
vt 0.447891 0.634538
vt 0.303895 0.155854
vt 0.273249 0.188718
vt 0.432144 0.253462
vt 0.434144 0.486824
vt 0.269198 0.410876
vt 0.253993 0.341958
vt 0.235566 0.268546
vt 0.229716 0.098893
vt 0.242087 0.037166
vt 0.281999 0.020947
vt 0.148318 0.608281
vt 0.063188 0.056357
vt 0.977855 0.015953
vt 0.601101 0.725203
vt 0.584737 0.675811
vt 0.601101 0.631245
vt 0.209052 0.068006
vt 0.996118 0.500889
vt 0.885825 0.705774
vn -0.0188 0.1293 0.9914
vn -0.3258 -0.0549 0.9439
vn 0.0185 0.3508 0.9363
vn 0.9229 0.1100 0.3689
vn 0.8560 -0.4515 0.2519
vn 0.9898 0.0497 0.1336
vn 0.0079 -0.2768 -0.9609
vn 0.1534 -0.2946 -0.9432
vn -0.3206 -0.8511 -0.4158
vn -0.0278 -0.2515 0.9675
vn -0.1631 -0.1770 0.9706
vn 0.0440 0.3801 0.9239
vn 0.2762 -0.8737 0.4005
vn 0.3800 -0.3557 0.8539
vn 0.4859 -0.8202 0.3019
vn 0.2690 0.8655 -0.4225
vn 0.5071 0.7693 -0.3885
vn 0.1375 0.6268 -0.7669
vn -0.8786 0.4657 -0.1059
vn -0.8379 0.5330 -0.1181
vn -0.9731 0.0878 -0.2129
vn 0.2459 0.5515 -0.7971
vn 0.6761 0.0674 -0.7337
vn 0.7549 0.3572 -0.5500
vn 0.8312 -0.5526 -0.0604
vn 0.9809 0.0552 0.1867
vn -0.5704 0.0492 -0.8199
vn -0.6308 0.6047 -0.4863
vn -0.5036 0.5612 -0.6568
vn 0.7286 0.5033 0.4645
vn 0.7235 0.2178 0.6550
vn 0.8054 0.4171 0.4211
vn -0.5488 0.8353 0.0333
vn -0.5222 0.7006 0.4863
vn -0.3932 0.8890 0.2346
vn -0.9002 0.1014 0.4235
vn -0.9286 -0.1579 0.3358
vn -0.7557 -0.0239 0.6545
vn 0.7319 -0.1340 0.6681
vn -0.3328 -0.4747 0.8148
vn -0.1940 -0.6158 0.7637
vn -0.6669 -0.0393 0.7441
vn -0.8355 0.0814 0.5434
vn -0.8618 0.0654 0.5030
vn -0.6712 0.3449 0.6561
vn -0.8070 -0.4942 -0.3233
vn -0.8639 -0.5018 -0.0434
vn -0.3928 -0.9164 0.0769
vn 0.1688 -0.0787 -0.9825
vn -0.1923 -0.0536 -0.9799
vn -0.0212 -0.9759 -0.2171
vn -0.8151 0.4866 -0.3143
vn -0.7683 -0.1148 -0.6297
vn -0.6789 0.1453 0.7197
vn 0.8956 -0.0787 0.4379
vn -0.6177 -0.7022 0.3541
vn -0.7473 -0.5048 0.4322
vn 0.8787 0.4309 -0.2055
vn 0.7960 0.5061 -0.3320
vn 0.3742 0.5560 0.7422
vn 0.1990 0.9006 0.3863
vn -0.7509 -0.2986 -0.5890
vn 0.5055 -0.2177 -0.8349
vn 0.8343 -0.1689 0.5248
vn 0.0167 -0.8014 0.5979
vn -0.2487 -0.3150 -0.9159
vn -0.2941 -0.1625 0.9418
vn 0.8884 0.4459 0.1096
vn 0.7113 0.2736 0.6474
vn 0.5189 0.4480 0.7280
vn -0.0061 0.2061 0.9785
vn 0.5887 -0.1642 0.7915
vn -0.7930 0.2313 0.5636
vn -0.2411 -0.0250 0.9702
vn -0.0310 -0.8583 0.5121
vn -0.8687 0.4949 0.0206
vn -0.9906 0.0857 0.1064
usemtl Rock_05
s 1
f 65/1/1 61/2/2 59/3/3
f 16/4/4 10/5/5 11/6/6
f 1/7/7 2/8/8 3/9/9
f 63/10/10 62/11/11 64/12/12
f 13/13/13 15/14/14 14/15/15
f 30/16/16 27/17/17 28/18/18
f 43/19/19 47/20/20 42/21/21
f 22/22/22 23/23/23 20/24/24
f 11/25/6 6/26/25 9/27/26
f 29/28/27 33/29/28 32/30/29
f 26/31/30 74/32/31 21/33/32
f 76/34/33 52/35/34 55/36/35
f 51/37/36 50/38/37 49/39/38
f 68/40/39 15/41/14 65/1/1
f 60/42/40 71/43/41 70/44/42
f 48/45/43 46/46/44 45/47/45
f 39/48/46 36/49/47 40/50/48
f 19/51/49 4/52/50 2/8/8
f 40/50/48 37/53/51 13/13/13
f 31/54/52 42/55/21 77/56/53
f 50/38/37 53/57/54 45/47/45
f 9/27/26 6/26/25 7/58/55
f 73/59/56 54/60/57 49/39/38
f 52/61/34 42/21/21 47/20/20
f 25/62/58 24/63/59 27/17/17
f 56/64/60 74/32/31 75/65/61
f 34/66/62 37/67/51 36/68/47
f 4/69/50 19/70/49 8/71/63
f 65/1/1 64/12/12 61/2/2
f 16/4/4 12/72/64 10/5/5
f 2/73/8 4/74/50 3/75/9
f 4/74/50 5/76/65 3/75/9
f 3/75/9 37/53/51 1/77/7
f 37/53/51 35/78/66 1/77/7
f 64/12/12 65/1/1 63/10/10
f 63/10/10 58/79/67 62/11/11
f 62/11/11 61/2/2 64/12/12
f 43/80/19 46/81/44 47/82/20
f 11/83/6 10/84/5 6/85/25
f 21/86/32 17/87/68 25/62/58
f 26/31/30 75/65/61 74/32/31
f 21/86/32 25/62/58 26/88/30
f 74/32/31 18/89/69 21/33/32
f 56/90/60 75/91/61 55/36/35
f 75/91/61 27/92/17 76/34/33
f 55/36/35 75/91/61 76/34/33
f 27/92/17 30/93/16 76/34/33
f 30/93/16 77/94/53 76/34/33
f 68/40/39 14/95/15 15/41/14
f 15/14/14 13/13/13 12/96/64
f 12/72/64 16/4/4 15/41/14
f 16/4/4 17/97/68 18/89/69
f 17/97/68 21/33/32 18/89/69
f 74/32/31 56/64/60 67/98/70
f 56/64/60 57/99/71 67/98/70
f 67/98/70 63/10/10 18/89/69
f 63/10/10 65/1/1 18/89/69
f 16/4/4 18/89/69 15/41/14
f 18/89/69 74/32/31 67/98/70
f 65/1/1 66/100/72 68/40/39
f 18/89/69 65/1/1 15/41/14
f 60/42/40 53/57/54 71/43/41
f 57/101/71 56/102/60 55/103/35
f 55/103/35 52/61/34 57/101/71
f 52/61/34 48/45/43 57/101/71
f 48/45/43 47/20/20 46/46/44
f 46/46/44 44/104/73 45/47/45
f 45/47/45 53/57/54 61/105/2
f 53/57/54 60/42/40 59/106/3
f 60/107/40 70/108/42 66/100/72
f 70/108/42 69/109/74 66/100/72
f 69/109/74 68/40/39 66/100/72
f 66/100/72 65/1/1 59/3/3
f 61/105/2 62/110/11 45/47/45
f 62/110/11 58/111/67 45/47/45
f 66/100/72 59/3/3 60/107/40
f 59/106/3 61/105/2 53/57/54
f 58/79/67 63/10/10 57/99/71
f 63/10/10 67/98/70 57/99/71
f 58/111/67 57/101/71 45/47/45
f 45/47/45 57/101/71 48/45/43
f 69/112/74 70/113/42 71/114/41
f 71/114/41 53/115/54 72/116/75
f 72/116/75 73/117/56 39/48/46
f 40/50/48 36/49/47 37/53/51
f 72/116/75 39/48/46 40/50/48
f 69/112/74 71/114/41 14/15/15
f 71/114/41 72/116/75 14/15/15
f 14/95/15 68/40/39 69/109/74
f 3/75/9 13/13/13 37/53/51
f 13/13/13 14/15/15 72/116/75
f 40/50/48 13/13/13 72/116/75
f 22/118/22 19/51/49 29/28/27
f 19/51/49 2/8/8 29/28/27
f 2/8/8 1/7/7 33/29/28
f 1/7/7 35/119/66 33/29/28
f 2/8/8 33/29/28 29/28/27
f 35/119/66 34/120/62 33/29/28
f 29/28/27 32/30/29 31/54/52
f 28/121/18 23/122/23 29/28/27
f 23/122/23 22/118/22 29/28/27
f 77/56/53 30/123/16 28/121/18
f 42/124/21 76/34/33 77/94/53
f 41/125/76 43/19/19 38/126/77
f 43/127/19 42/55/21 31/54/52
f 31/54/52 38/128/77 43/127/19
f 29/28/27 31/54/52 77/56/53
f 28/121/18 29/28/27 77/56/53
f 38/126/77 31/129/52 32/130/29
f 32/130/29 33/131/28 38/126/77
f 33/131/28 34/132/62 38/126/77
f 34/132/62 36/133/47 38/126/77
f 36/133/47 39/134/46 38/126/77
f 39/134/46 73/59/56 41/125/76
f 73/59/56 49/39/38 41/125/76
f 49/39/38 50/38/37 41/125/76
f 41/125/76 38/126/77 39/134/46
f 46/46/44 43/19/19 44/104/73
f 43/19/19 41/125/76 44/104/73
f 51/37/36 54/60/57 53/57/54
f 44/104/73 41/125/76 50/38/37
f 50/38/37 51/37/36 53/57/54
f 45/47/45 44/104/73 50/38/37
f 12/96/64 13/13/13 10/84/5
f 13/13/13 3/75/9 6/85/25
f 13/13/13 6/85/25 10/84/5
f 3/75/9 5/76/65 7/135/55
f 6/85/25 3/75/9 7/135/55
f 8/71/63 9/27/26 7/58/55
f 72/116/75 53/115/54 54/136/57
f 54/60/57 51/37/36 49/39/38
f 73/117/56 72/116/75 54/136/57
f 47/20/20 48/45/43 52/61/34
f 52/35/34 76/34/33 42/124/21
f 27/17/17 75/137/61 25/62/58
f 75/138/61 26/139/30 25/140/58
f 34/141/62 35/78/66 37/53/51
f 16/142/4 11/25/6 9/27/26
f 8/71/63 7/58/55 5/143/65
f 16/142/4 9/27/26 20/24/24
f 9/27/26 8/71/63 20/24/24
f 25/62/58 17/87/68 24/63/59
f 17/87/68 16/142/4 20/24/24
f 24/63/59 17/87/68 23/23/23
f 28/18/18 27/17/17 24/63/59
f 17/87/68 20/24/24 23/23/23
f 23/23/23 28/18/18 24/63/59
f 19/70/49 22/22/22 20/24/24
f 8/71/63 5/143/65 4/69/50
f 20/24/24 8/71/63 19/70/49
