# Blender v3.0.1 OBJ File: 'world_globe.blend'
# www.blender.org
mtllib bush3.mtl
o Cylinder.004_Cylinder.001
v -0.247250 -0.364930 0.066730
v -0.369986 -0.358275 0.100733
v -0.476933 -0.357462 -0.198597
v -0.343607 -0.364930 -0.147131
v -0.428900 -0.323063 -0.427181
v -0.348579 -0.364930 -0.434675
v -0.235401 -0.323063 -0.539749
v -0.194171 -0.364930 -0.497072
v -0.069526 -0.323063 -0.585701
v -0.082919 -0.364930 -0.527893
v 0.125774 -0.323063 -0.568672
v 0.178674 -0.364930 -0.424036
v 0.284583 -0.323063 -0.397390
v 0.285187 -0.364930 -0.309156
v 0.365714 -0.323063 -0.151417
v 0.331418 -0.364930 -0.141916
v 0.340232 -0.323063 0.172426
v 0.295347 -0.364930 0.096460
v 0.424128 -0.333469 0.445944
v 0.306620 -0.375336 0.319206
v 0.334078 -0.333470 0.701754
v 0.255661 -0.375336 0.524845
v 0.183599 -0.333470 0.803286
v 0.169509 -0.375336 0.646269
v -0.175554 -0.323063 0.586464
v -0.118634 -0.364930 0.411402
v 0.134655 -0.253890 -0.606882
v 0.325060 -0.253890 -0.401522
v -0.334364 -0.323063 0.415180
v -0.225147 -0.399329 0.296524
v -0.366021 -0.253890 0.373310
v -0.175615 -0.253890 0.578670
v -0.200036 -0.146840 0.666393
v -0.419737 -0.146840 0.429438
v 0.326685 -0.253891 0.766294
v 0.127808 -0.253891 0.821390
v -0.278697 -0.253890 -0.645966
v -0.099503 -0.253890 -0.627298
v 0.411464 -0.253890 0.207903
v 0.434651 -0.253890 0.459587
v -0.440058 -0.253890 0.121944
v -0.568283 -0.253890 -0.236939
v -0.510694 -0.253890 -0.511002
v 0.442015 -0.253890 -0.180372
v 0.512622 -0.146840 -0.209433
v 0.389916 -0.146840 -0.420410
v 0.407017 -0.030459 -0.438505
v 0.534886 -0.030459 -0.218649
v 0.178332 -0.146840 -0.656660
v -0.505165 -0.146840 0.139397
v 0.515583 -0.146840 0.227993
v -0.611620 -0.146840 -0.286200
v 0.542338 -0.146840 0.518402
v -0.545169 -0.146840 -0.602428
v 0.363277 -0.146841 0.824156
v -0.318977 -0.146840 -0.746662
v 0.133802 -0.146841 0.887728
v -0.108085 -0.146840 -0.681635
v 0.484281 -0.030459 0.562418
v 0.456400 -0.030459 0.259787
v 0.429437 0.078071 0.245514
v 0.455728 0.078071 0.530888
v -0.525737 -0.030459 0.144863
v -0.636671 -0.030459 -0.298645
v -0.567424 -0.030459 -0.628185
v 0.360222 -0.030460 0.789728
v -0.331712 -0.030459 -0.778488
v 0.121088 -0.030460 0.855978
v -0.111944 -0.030459 -0.710724
v -0.207765 -0.030459 0.694040
v 0.186527 -0.030459 -0.684698
v -0.436712 -0.030459 0.447109
v -0.294256 0.078071 -0.663412
v -0.516525 0.078071 -0.521681
v -0.383030 0.182172 -0.398018
v -0.232290 0.182172 -0.494137
v -0.527963 0.078071 -0.301386
v 0.353670 0.078070 0.732828
v 0.128175 0.078070 0.795298
v -0.053701 0.078071 -0.647118
v -0.199873 0.078071 0.577806
v 0.227750 0.078071 -0.622576
v -0.412741 0.078071 0.422153
v 0.382870 0.078071 -0.412954
v -0.423355 0.078071 0.116829
v 0.503447 0.078071 -0.205635
v -0.137342 0.182172 0.390287
v 0.085134 0.182172 0.537788
v 0.055555 0.273162 0.360813
v -0.094368 0.273162 0.261416
v 0.238062 0.182172 0.495422
v -0.038211 0.182172 -0.440435
v 0.141197 0.156916 -0.400295
v -0.281706 0.182172 0.284727
v 0.246396 0.156916 -0.258133
v -0.363175 0.198647 0.098236
v 0.339637 0.182172 -0.141029
v 0.289445 0.182172 0.164932
v -0.434117 0.198647 -0.185390
v 0.307275 0.182172 0.358469
v 0.171955 0.233900 -0.191376
v 0.101062 0.233900 -0.287176
v 0.063890 0.309755 -0.127045
v 0.092091 0.295662 -0.088934
v -0.027565 0.233900 -0.298391
v -0.191651 0.273162 0.190281
v -0.205496 0.273162 0.053234
v 0.227060 0.243710 -0.096628
v 0.190370 0.221422 0.099207
v -0.253304 0.273162 -0.137896
v 0.202386 0.250874 0.229628
v -0.259933 0.227920 -0.269808
v 0.158610 0.273162 0.332264
v -0.158352 0.227920 -0.334581
v 0.100557 0.309755 0.030779
v 0.114013 0.295662 -0.051243
v 0.065540 0.315931 -0.032125
v 0.059132 0.315931 0.006933
v -0.052554 0.309755 0.062893
v -0.058062 0.309755 0.008375
v -0.077080 0.278731 -0.067659
v 0.105337 0.339851 0.082661
v -0.079717 0.278731 -0.120134
v 0.086783 0.339851 0.119375
v -0.039307 0.278731 -0.145903
v 0.045786 0.339851 0.130732
v 0.012721 0.278731 -0.131506
v -0.013854 0.339851 0.091190
v -0.025459 0.315931 -0.039942
v -0.016403 0.315931 -0.003735
v -0.013780 0.315931 0.022226
v 0.004650 0.315931 0.035702
v 0.033050 0.315931 0.054533
v 0.052573 0.315931 0.049124
v 0.061409 0.315931 0.031641
v 0.055101 0.315931 -0.050074
v 0.041672 0.315931 -0.068222
v 0.017304 0.315931 -0.070347
v -0.007472 0.284906 -0.077202
v -0.026715 0.315931 -0.064932
vt 0.446858 0.834040
vt 0.476661 0.836249
vt 0.476661 0.909764
vt 0.451131 0.888110
vt 0.451452 0.956182
vt 0.429881 0.951121
vt 0.611443 0.997837
vt 0.592619 0.962320
vt 0.634624 0.957544
vt 0.645578 0.994894
vt 0.671767 0.955050
vt 0.670490 0.993221
vt 0.717100 0.954364
vt 0.733031 0.994868
vt 0.757500 0.958790
vt 0.760128 0.997837
vt 0.283264 0.040854
vt 0.297985 0.080102
vt 0.247349 0.069584
vt 0.248369 0.033877
vt 0.173763 0.058310
vt 0.193298 0.025915
vt 0.118352 0.037783
vt 0.145416 0.008646
vt 0.056567 0.030237
vt 0.096870 0.002163
vt 0.372573 0.695053
vt 0.372905 0.650875
vt 0.413392 0.640463
vt 0.400668 0.675307
vt 0.475265 0.715721
vt 0.445754 0.748974
vt 0.717449 0.893195
vt 0.765888 0.898502
vt 0.507645 0.615095
vt 0.487758 0.588956
vt 0.539686 0.576958
vt 0.548359 0.636137
vt 0.772539 0.002163
vt 0.799091 0.073652
vt 0.728050 0.044872
vt 0.718779 0.031579
vt 0.391582 0.952704
vt 0.365084 0.950767
vt 0.316469 0.907809
vt 0.302311 0.874507
vt 0.305280 0.834489
vt 0.331604 0.785378
vt 0.345565 0.735878
vt 0.456965 0.781906
vt 0.539225 0.515628
vt 0.476964 0.530013
vt 0.451515 0.444186
vt 0.523355 0.427588
vt 0.026044 0.029474
vt 0.032403 0.096517
vt 0.009708 0.098383
vt 0.621436 0.894549
vt 0.663098 0.894017
vt 0.161422 0.115162
vt 0.106481 0.105564
vt 0.787786 0.133736
vt 0.730760 0.137258
vt 0.605958 0.076015
vt 0.660367 0.050906
vt 0.649640 0.143672
vt 0.585636 0.139010
vt 0.292873 0.138992
vt 0.249649 0.128679
vt 0.394700 0.615105
vt 0.388952 0.548087
vt 0.571075 0.900276
vt 0.247212 0.220485
vt 0.287865 0.230540
vt 0.279082 0.331017
vt 0.236718 0.320539
vt 0.725090 0.798639
vt 0.779097 0.804791
vt 0.798257 0.227507
vt 0.732457 0.231571
vt 0.149771 0.204530
vt 0.635655 0.236373
vt 0.086376 0.193455
vt 0.561803 0.230995
vt 0.008793 0.185825
vt 0.559792 0.804892
vt 0.608609 0.798908
vt 0.359649 0.547644
vt 0.326928 0.460938
vt 0.360739 0.461449
vt 0.658608 0.799644
vt 0.059805 0.293136
vt 0.125868 0.304677
vt 0.114852 0.399117
vt 0.052557 0.388234
vt 0.730522 0.330963
vt 0.629645 0.335967
vt 0.552686 0.330361
vt 0.002600 0.287288
vt 0.552686 0.703430
vt 0.603557 0.697195
vt 0.312137 0.360505
vt 0.347372 0.361037
vt 0.655661 0.697962
vt 0.429359 0.347251
vt 0.724940 0.696914
vt 0.504222 0.329953
vt 0.781221 0.703325
vt 0.799091 0.326727
vt 0.812362 0.594354
vt 0.873243 0.594111
vt 0.865898 0.676431
vt 0.824609 0.676596
vt 0.624341 0.420760
vt 0.573355 0.419155
vt 0.002163 0.382879
vt 0.801562 0.521691
vt 0.866125 0.521433
vt 0.302311 0.265373
vt 0.335537 0.265875
vt 0.613454 0.606615
vt 0.669185 0.605623
vt 0.424738 0.248912
vt 0.734513 0.604635
vt 0.484545 0.237072
vt 0.774927 0.610298
vt 0.789781 0.416638
vt 0.719464 0.416041
vt 0.259329 0.423954
vt 0.219381 0.414074
vt 0.420266 0.150976
vt 0.359770 0.162480
vt 0.373097 0.074977
vt 0.413864 0.067225
vt 0.337238 0.162140
vt 0.630263 0.521433
vt 0.676139 0.521916
vt 0.543788 0.724618
vt 0.480988 0.724618
vt 0.504607 0.640463
vt 0.538989 0.645714
vt 0.460826 0.142946
vt 0.297985 0.434589
vt 0.234573 0.496045
vt 0.208357 0.488832
vt 0.753233 0.495774
vt 0.710785 0.513907
vt 0.184131 0.504496
vt 0.113241 0.494353
vt 0.646274 0.517107
vt 0.070994 0.486972
vt 0.597024 0.499209
vt 0.036817 0.483341
vt 0.180498 0.554102
vt 0.198164 0.558963
vt 0.151553 0.619144
vt 0.146186 0.605082
vt 0.041700 0.707387
vt 0.002163 0.680411
vt 0.012007 0.640942
vt 0.041700 0.644090
vt 0.441196 0.061813
vt 0.497715 0.117201
vt 0.461906 0.053761
vt 0.046026 0.653143
vt 0.073748 0.640942
vt 0.073748 0.707136
vt 0.058060 0.709115
vt 0.161085 0.558029
vt 0.118098 0.532445
vt 0.548359 0.099958
vt 0.496034 0.042141
vt 0.086158 0.552817
vt 0.902078 0.713751
vt 0.875062 0.774980
vt 0.858754 0.731734
vt 0.058342 0.569118
vt 0.830931 0.731845
vt 0.357913 0.074747
vt 0.792650 0.706227
vt 0.809640 0.754545
vt 0.118259 0.612695
vt 0.138923 0.603286
vt 0.129734 0.620976
vt 0.120684 0.619681
vt 0.888443 0.811772
vt 0.902078 0.835969
vt 0.860859 0.846426
vt 0.855435 0.836800
vt 0.848837 0.807989
vt 0.103387 0.636616
vt 0.843090 0.799008
vt 0.094225 0.635642
vt 0.832021 0.799053
vt 0.387934 0.005156
vt 0.393974 0.005247
vt 0.823454 0.806996
vt 0.410191 0.002163
vt 0.785547 0.770142
vt 0.815144 0.827375
vt 0.426215 0.025461
vt 0.843470 0.835093
vt 0.846005 0.842063
vt 0.848588 0.846647
vt 0.846554 0.850849
vt 0.843188 0.857004
vt 0.838682 0.858193
vt 0.834846 0.856238
vt 0.832344 0.851899
vt 0.826411 0.846108
vt 0.826331 0.842018
vt 0.826818 0.837575
vt 0.831382 0.834620
vt 0.834188 0.816663
vt 0.840733 0.830817
vt 0.833238 0.880317
vt 0.826748 0.857455
vt 0.108061 0.673397
vt 0.096815 0.669001
vt 0.102706 0.640942
vt 0.108061 0.643035
vt 0.841293 0.884421
vt 0.084869 0.645316
vt 0.092489 0.640942
vt 0.092489 0.674369
vt 0.078074 0.651842
vt 0.850756 0.881926
vt 0.857824 0.869001
vt 0.136539 0.622752
vt 0.133192 0.621832
vn -0.0565 -0.9982 0.0208
vn -0.2081 -0.9746 -0.0823
vn -0.3133 -0.7167 -0.6231
vn -0.1672 -0.7797 -0.6034
vn 0.1052 -0.9115 -0.3976
vn 0.4218 -0.8180 -0.3911
vn 0.7725 -0.5887 -0.2381
vn 0.6937 -0.7163 0.0759
vn 0.5918 -0.7926 -0.1467
vn 0.2775 -0.9570 0.0848
vn 0.1807 -0.9646 0.1918
vn -0.1830 -0.9586 0.2181
vn 0.6637 -0.4251 -0.6154
vn -0.1783 -0.9437 0.2787
vn -0.3160 -0.9481 0.0349
vn 0.0046 -0.9999 -0.0091
vn -0.5938 -0.5867 0.5506
vn 0.3906 -0.2973 0.8712
vn -0.0528 -0.7420 -0.6683
vn 0.8856 -0.4243 -0.1890
vn -0.8560 -0.4785 0.1957
vn -0.6264 -0.7576 -0.1835
vn 0.6944 -0.6566 -0.2945
vn -0.5527 -0.2624 0.7910
vn 0.0757 -0.4896 -0.8687
vn 0.9281 -0.1787 0.3267
vn -0.2616 -0.8541 -0.4496
vn 0.6818 -0.7296 0.0536
vn -0.7704 -0.5754 0.2745
vn -0.7312 0.0757 0.6779
vn 0.8468 -0.2010 -0.4925
vn 0.6367 -0.5086 -0.5796
vn -0.8118 -0.5327 0.2391
vn 0.7292 -0.5520 -0.4044
vn 0.7750 -0.6314 0.0259
vn -0.8760 -0.4048 0.2621
vn 0.7215 -0.6892 -0.0665
vn -0.8785 -0.4406 -0.1846
vn 0.6928 -0.6438 0.3247
vn -0.3776 -0.6880 -0.6197
vn 0.2277 -0.5221 0.8219
vn 0.1751 -0.5509 -0.8160
vn -0.4975 -0.5345 0.6832
vn 0.0777 -0.4463 -0.8915
vn 0.9693 0.2291 -0.0893
vn 0.9856 0.1484 0.0813
vn -0.9543 -0.1799 0.2387
vn 0.8793 0.4693 -0.0810
vn -0.9532 -0.2266 -0.2003
vn 0.8511 0.2035 0.4840
vn -0.5165 -0.2780 -0.8099
vn 0.2563 0.2804 0.9251
vn 0.2872 -0.2233 -0.9315
vn -0.5004 -0.0287 0.8653
vn 0.0844 -0.2390 -0.9674
vn -0.7176 -0.2057 0.6654
vn 0.7286 -0.2085 -0.6525
vn -0.9436 -0.1798 0.2779
vn -0.2737 0.8608 -0.4292
vn -0.7738 0.6232 -0.1135
vn 0.8394 0.3159 0.4422
vn -0.3654 0.7336 -0.5730
vn 0.2367 0.4623 0.8545
vn 0.1450 0.5899 -0.7943
vn -0.4020 0.5950 0.6960
vn 0.0765 0.4733 -0.8776
vn -0.5827 0.5015 0.6395
vn 0.7573 0.1925 -0.6241
vn -0.8410 0.5232 0.1379
vn 0.8255 0.2967 -0.4801
vn 0.9535 0.2575 0.1564
vn -0.6936 0.6991 0.1735
vn -0.3150 0.8216 0.4751
vn 0.0993 0.9282 0.3586
vn 0.0798 0.8650 -0.4954
vn -0.2646 0.8779 0.3991
vn 0.1032 0.9210 -0.3757
vn -0.2856 0.8751 0.3906
vn 0.2925 0.9314 -0.2165
vn -0.6971 0.7002 0.1540
vn 0.3343 0.8967 -0.2901
vn 0.5596 0.8236 0.0918
vn -0.8601 0.4625 0.2151
vn 0.6166 0.7852 -0.0568
vn -0.6308 0.7666 -0.1203
vn 0.3960 0.8962 0.2001
vn 0.4544 0.8561 -0.2462
vn 0.1450 0.8900 -0.4322
vn -0.3395 0.8180 0.4643
vn 0.4917 0.7911 -0.3639
vn -0.4727 0.8620 0.1832
vn 0.3781 0.8336 -0.4027
vn 0.4180 0.9015 0.1124
vn -0.4015 0.9103 0.1004
vn 0.5552 0.8221 -0.1259
vn -0.2569 0.9450 -0.2024
vn 0.4958 0.8546 0.1543
vn -0.1365 0.9672 -0.2141
vn 0.1213 0.8909 0.4378
vn 0.0726 0.9429 -0.3251
vn 0.2847 0.9564 -0.0646
vn -0.2340 0.9719 0.0236
vn 0.3337 0.9058 -0.2612
vn 0.5548 0.8227 0.1244
vn -0.1222 0.9889 -0.0843
vn 0.8026 0.5412 -0.2507
vn -0.0068 0.9712 -0.2380
vn 0.5397 0.8349 0.1079
vn -0.1194 0.9750 -0.1872
vn 0.0761 0.9585 0.2746
vn 0.0457 0.9593 -0.2785
vn -0.1862 0.9415 0.2808
vn -0.1307 0.9305 -0.3422
vn -0.2930 0.9494 0.1133
vn -0.0094 0.9970 -0.0763
vn -0.3959 0.9058 -0.1513
vn 0.1366 0.9177 -0.3732
vn -0.5949 0.8032 0.0299
vn -0.3203 0.9334 -0.1619
vn 0.1823 0.8824 -0.4337
vn -0.0794 0.9548 -0.2865
vn -0.3121 0.9240 -0.2211
vn 0.2155 0.9208 -0.3251
vn -0.3266 0.8725 -0.3634
vn -0.2497 0.9148 -0.3176
vn 0.3609 0.9320 -0.0336
vn -0.1425 0.9897 0.0144
vn 0.3165 0.9306 -0.1841
usemtl Material.038
s 1
f 1/1/1 2/2/1 3/3/1 4/4/1
f 4/4/2 3/3/2 5/5/2 6/6/2
f 6/7/3 5/8/3 7/9/3 8/10/3
f 8/10/4 7/9/4 9/11/4 10/12/4
f 10/12/5 9/11/5 11/13/5 12/14/5
f 12/14/6 11/13/6 13/15/6 14/16/6
f 14/17/7 13/18/7 15/19/7 16/20/7
f 16/20/8 15/19/8 17/21/8 18/22/8
f 18/22/9 17/21/9 19/23/9 20/24/9
f 20/24/10 19/23/10 21/25/10 22/26/10
f 22/27/11 21/28/11 23/29/11 24/30/11
f 24/30/12 23/29/12 25/31/12 26/32/12
f 13/15/13 11/13/13 27/33/13 28/34/13
f 26/35/14 25/36/14 29/37/14 30/38/14
f 30/39/15 29/40/15 2/41/15 1/42/15
f 1/1/16 4/4/16 6/6/16 8/43/16 10/44/16 12/45/16 14/46/16 16/47/16 18/48/16 20/49/16 22/27/16 24/30/16 26/32/16 30/50/16
f 31/51/17 32/52/17 33/53/17 34/54/17
f 23/55/18 21/25/18 35/56/18 36/57/18
f 9/11/19 7/9/19 37/58/19 38/59/19
f 19/23/20 17/21/20 39/60/20 40/61/20
f 2/41/21 29/40/21 31/62/21 41/63/21
f 5/64/22 3/65/22 42/66/22 43/67/22
f 15/19/23 13/18/23 28/68/23 44/69/23
f 25/36/24 23/70/24 36/71/24 32/52/24
f 11/13/25 9/11/25 38/59/25 27/33/25
f 21/25/26 19/23/26 40/61/26 35/56/26
f 7/9/27 5/8/27 43/72/27 37/58/27
f 17/21/28 15/19/28 44/69/28 39/60/28
f 3/65/29 2/41/29 41/63/29 42/66/29
f 29/37/30 25/36/30 32/52/30 31/51/30
f 45/73/31 46/74/31 47/75/31 48/76/31
f 28/34/32 27/33/32 49/77/32 46/78/32
f 41/63/33 31/62/33 34/79/33 50/80/33
f 44/69/34 28/68/34 46/74/34 45/73/34
f 39/60/35 44/69/35 45/73/35 51/81/35
f 42/66/36 41/63/36 50/80/36 52/82/36
f 40/61/37 39/60/37 51/81/37 53/83/37
f 43/67/38 42/66/38 52/82/38 54/84/38
f 35/56/39 40/61/39 53/83/39 55/85/39
f 37/58/40 43/72/40 54/86/40 56/87/40
f 36/71/41 35/88/41 55/89/41 57/90/41
f 38/59/42 37/58/42 56/87/42 58/91/42
f 32/52/43 36/71/43 57/90/43 33/53/43
f 27/33/44 38/59/44 58/91/44 49/77/44
f 59/92/45 60/93/45 61/94/45 62/95/45
f 51/81/46 45/73/46 48/76/46 60/93/46
f 52/82/47 50/80/47 63/96/47 64/97/47
f 53/83/48 51/81/48 60/93/48 59/92/48
f 54/84/49 52/82/49 64/97/49 65/98/49
f 55/85/50 53/83/50 59/92/50 66/99/50
f 56/87/51 54/86/51 65/100/51 67/101/51
f 57/90/52 55/89/52 66/102/52 68/103/52
f 58/91/53 56/87/53 67/101/53 69/104/53
f 33/53/54 57/90/54 68/103/54 70/105/54
f 49/77/55 58/91/55 69/104/55 71/106/55
f 34/54/56 33/53/56 70/105/56 72/107/56
f 46/78/57 49/77/57 71/106/57 47/108/57
f 50/80/58 34/79/58 72/109/58 63/96/58
f 73/110/59 74/111/59 75/112/59 76/113/59
f 65/98/60 64/97/60 77/114/60 74/115/60
f 66/99/61 59/92/61 62/95/61 78/116/61
f 67/117/62 65/118/62 74/111/62 73/110/62
f 68/103/63 66/102/63 78/119/63 79/120/63
f 69/104/64 67/101/64 73/121/64 80/122/64
f 70/105/65 68/103/65 79/120/65 81/123/65
f 71/106/66 69/104/66 80/122/66 82/124/66
f 72/107/67 70/105/67 81/123/67 83/125/67
f 47/108/68 71/106/68 82/124/68 84/126/68
f 63/96/69 72/109/69 83/127/69 85/128/69
f 48/76/70 47/75/70 84/129/70 86/130/70
f 60/93/71 48/76/71 86/130/71 61/94/71
f 64/97/72 63/96/72 85/128/72 77/114/72
f 87/131/73 88/132/73 89/133/73 90/134/73
f 79/120/74 78/119/74 91/135/74 88/132/74
f 80/122/75 73/121/75 76/136/75 92/137/75
f 81/123/76 79/120/76 88/132/76 87/131/76
f 82/138/77 80/139/77 92/140/77 93/141/77
f 83/125/78 81/123/78 87/131/78 94/142/78
f 84/129/79 82/143/79 93/144/79 95/145/79
f 85/128/80 83/127/80 94/146/80 96/147/80
f 86/130/81 84/129/81 95/145/81 97/148/81
f 61/94/82 86/130/82 97/148/82 98/149/82
f 77/114/83 85/128/83 96/147/83 99/150/83
f 62/95/84 61/94/84 98/149/84 100/151/84
f 74/115/85 77/114/85 99/150/85 75/152/85
f 78/116/86 62/95/86 100/151/86 91/153/86
f 101/154/87 102/155/87 103/156/87 104/157/87
f 93/158/88 92/159/88 105/160/88 102/161/88
f 94/142/89 87/131/89 90/134/89 106/162/89
f 95/145/90 93/144/90 102/155/90 101/154/90
f 96/163/91 94/142/91 106/162/91 107/164/91
f 97/165/92 95/166/92 101/167/92 108/168/92
f 98/149/93 97/148/93 108/169/93 109/170/93
f 99/171/94 96/163/94 107/164/94 110/172/94
f 100/151/95 98/149/95 109/170/95 111/173/95
f 75/112/96 99/174/96 110/175/96 112/176/96
f 91/153/97 100/151/97 111/173/97 113/177/97
f 76/113/98 75/112/98 112/176/98 114/178/98
f 88/132/99 91/135/99 113/179/99 89/133/99
f 92/180/100 76/113/100 114/178/100 105/181/100
f 115/182/101 116/183/101 117/184/101 118/185/101
f 107/186/102 106/187/102 119/188/102 120/189/102
f 108/169/103 101/154/103 104/157/103 116/183/103
f 109/170/104 108/169/104 116/183/104 115/182/104
f 110/175/105 107/186/105 120/189/105 121/190/105
f 111/173/106 109/170/106 115/182/106 122/191/106
f 112/176/107 110/175/107 121/190/107 123/192/107
f 113/177/108 111/173/108 122/191/108 124/193/108
f 114/178/109 112/176/109 123/192/109 125/194/109
f 89/133/110 113/179/110 124/195/110 126/196/110
f 105/181/111 114/178/111 125/194/111 127/197/111
f 90/134/112 89/133/112 126/196/112 128/198/112
f 102/199/113 105/181/113 127/197/113 103/200/113
f 106/162/114 90/134/114 128/198/114 119/201/114
f 129/202/115 130/203/115 131/204/115 132/205/115 133/206/115 134/207/115 135/208/115 118/209/115 117/210/115 136/211/115 137/212/115 138/213/115 139/214/115 140/215/115
f 121/190/116 120/189/116 130/203/116 129/202/116
f 122/216/117 115/217/117 118/209/117 135/208/117
f 123/218/118 121/219/118 129/220/118 140/221/118
f 124/222/119 122/216/119 135/208/119 134/207/119
f 125/223/120 123/224/120 140/225/120 139/226/120
f 126/227/121 124/222/121 134/207/121 133/206/121
f 127/197/122 125/194/122 139/214/122 138/213/122
f 128/228/123 126/227/123 133/206/123 132/205/123
f 103/200/124 127/197/124 138/213/124 137/212/124
f 119/188/125 128/228/125 132/205/125 131/204/125
f 104/157/126 103/156/126 137/229/126 136/230/126
f 120/189/127 119/188/127 131/204/127 130/203/127
f 116/183/128 104/157/128 136/230/128 117/184/128
